<svg xmlns="http://www.w3.org/2000/svg" xmlns:xlink="http://www.w3.org/1999/xlink" viewBox="0 0 336.57 628.07"><defs><style>.cls-1{fill:url(#Gradiente_sem_nome_52);}.cls-2{fill:#323366;}</style><radialGradient id="Gradiente_sem_nome_52" cx="158.5" cy="323.61" fx="65.78981312515965" fy="547.9207851515625" r="242.72" gradientTransform="translate(0 -153.95) scale(1 1.48)" gradientUnits="userSpaceOnUse"><stop offset="0.25" stop-color="#ffcc03"/><stop offset="0.47" stop-color="#323366"/></radialGradient></defs><g id="Camada_2" data-name="Camada 2"><path class="cls-1" d="M48.84,19.19s246.92-4.76,265.44,92.65c14.84,78.06-33.89,116-73.89,133.77a192.12,192.12,0,0,1-61.27,15.55l-35.08,3c-22.57,2-44.83,21.71-49.47,43.89L75.92,397.27a29.63,29.63,0,0,0,24.4,35.34l103.13,16.23L95.7,453.44l107.75-4.6L119.7,497.35h65.87L36.47,628.07l58-99.19-71.83-2.42,33.53-52.69L25.4,467.29A28.56,28.56,0,0,1,.25,435.18c11.84-90.18,42-226.42,46.12-225.87C289.23,242,376,55.65,48.72,64.84"/><rect class="cls-2" x="48.72" width="32.68" height="20.43"/><rect class="cls-2" x="108.18" y="2.72" width="32.68" height="20.43" transform="translate(2.12 -13.37) rotate(6.2)"/><rect class="cls-2" x="170.03" y="12.09" width="32.68" height="20.43" transform="translate(7.3 -33.94) rotate(10.61)"/><rect class="cls-2" x="228.21" y="28.5" width="32.68" height="20.43" transform="translate(28.3 -81.87) rotate(20.15)"/><rect class="cls-2" x="278.89" y="57.18" width="32.68" height="20.43" transform="translate(120.25 -179.76) rotate(41.84)"/><rect class="cls-2" x="306.94" y="104.32" width="32.68" height="20.43" transform="translate(370.26 -225.2) rotate(78.37)"/><rect class="cls-2" x="304.42" y="160.33" width="32.68" height="20.43" transform="translate(572.41 -91.47) rotate(105.85)"/><rect class="cls-2" x="276.79" y="206.96" width="32.68" height="20.43" transform="translate(647.56 130.73) rotate(129.76)"/><rect class="cls-2" x="231.19" y="240.76" width="32.68" height="20.43" transform="translate(577.08 376.08) rotate(155.39)"/><rect class="cls-2" x="174.05" y="258.63" width="32.68" height="20.43" transform="translate(-50.3 43.92) rotate(-11.63)"/><rect class="cls-2" x="115.11" y="263.48" width="32.68" height="20.43" transform="translate(-24.71 13.31) rotate(-5.3)"/></g></svg>